<svg id="Layer_1" data-name="Layer 1" xmlns="http://www.w3.org/2000/svg" viewBox="0 0 400 400"><defs><style>.cls-1,.cls-5,.cls-6{fill:#3aaa35;}.cls-1,.cls-2,.cls-3,.cls-7,.cls-9{stroke:#1a5e2b;}.cls-1,.cls-2,.cls-9{stroke-linecap:round;}.cls-1,.cls-2,.cls-3,.cls-9{stroke-linejoin:round;}.cls-10,.cls-2{fill:#fff;}.cls-3,.cls-7,.cls-9{fill:none;stroke-width:4px;}.cls-4{fill:#1d1d1b;}.cls-6{opacity:0.5;}.cls-7{stroke-miterlimit:10;}.cls-8{fill:#1a5e2b;}</style></defs><title>Artboard 1</title><path class="cls-1" d="M99,116.45l-11.33-3.56A6.09,6.09,0,0,1,84,109.82h0a6,6,0,0,1-.39-4.55l2.12-6.93a18,18,0,0,0,9-1.41,93,93,0,0,0,9.74-6.18L110,101.5h0a1.6,1.6,0,0,0,2.42,1.26,11.15,11.15,0,0,0,3.21-3.16c.51-.73,1-1.4,1.33-2a9.06,9.06,0,0,0,.87-7.8h0A3.68,3.68,0,0,1,119,85.69c4.64-3.67,15.66-12.34,17.42-13.23l1.56-.79a1,1,0,0,1,1.21.23h0A3.35,3.35,0,0,0,144,72l8.41-8.48a13.41,13.41,0,0,1,8.25-3.9h0a6.25,6.25,0,0,0,3.57-1.55c1.49-1.3,4.19-3.67,8.72-7.58,7.86-6.8,20.21-19,28.2-24.29a47.42,47.42,0,0,1,16.38-6.7s-15.87,8.33-27.34,20.4-16.82,22-24.57,25.27c-3.78,1.61-5.93,2-7.14,2A7,7,0,0,0,152.87,70l-.09.12c-3,4-6.72,10.92-9,12.06a3.4,3.4,0,0,1-3,0,4.45,4.45,0,0,0-4.93.76c-2.93,2.76-7.36,7.1-8.41,9.07-1.62,3-2.36,4.65-2.36,4.65s-1.73,5.89-4.6,9.54a10.41,10.41,0,0,1-1.07,1.14,12.76,12.76,0,0,1-13.16,2.23l-2.41-.93-1.88.64Z"/><path class="cls-2" d="M100.57,104l1.52,3.63-3,8.45a.36.36,0,0,1-.45.22l-11-3.45A6.09,6.09,0,0,1,84,109.82h0a6,6,0,0,1-.39-4.55l1.7-5.56a1.33,1.33,0,0,1,1.75-.85Z"/><path class="cls-2" d="M102.22,109.8l-3.81-8.34a6.23,6.23,0,0,1,2-7.64l4.69-3.7,5.43,10.75S106.2,103.39,102.22,109.8Z"/><line class="cls-3" x1="118.31" y1="86.54" x2="127.34" y2="92.55"/><path class="cls-4" d="M220.12,227.82h9.3v3.36h-5.7v6.36h4.5v3.36h-4.5v9.72h-3.6Z"/><path class="cls-4" d="M235.42,246.12v-13.8a5,5,0,1,1,9.9,0v13.8a4.95,4.95,0,1,1-9.9,0Zm6.3.24V232.08a1.35,1.35,0,1,0-2.7,0v14.28a1.35,1.35,0,0,0,2.7,0Z"/><path class="cls-4" d="M252.37,246.12v-2.7H256v2.94a1.35,1.35,0,1,0,2.7,0v-1.74c0-3.75-6.3-5-6.3-10.5v-1.8a4.95,4.95,0,0,1,9.9,0V235h-3.6v-2.94a1.35,1.35,0,1,0-2.7,0v1.74c0,3.72,6.3,5,6.3,10.5v1.8a4.95,4.95,0,0,1-9.9,0Z"/><path class="cls-4" d="M269.17,246.12v-2.7h3.6v2.94a1.35,1.35,0,1,0,2.7,0v-1.74c0-3.75-6.3-5-6.3-10.5v-1.8a4.95,4.95,0,0,1,9.9,0V235h-3.6v-2.94a1.35,1.35,0,0,0-2.7,0v1.74c0,3.72,6.3,5,6.3,10.5v1.8a4.95,4.95,0,0,1-9.9,0Z"/><path class="cls-5" d="M290.62,245.7H284V243l7.5-15.21h2.7v14.52h2.1v3.36h-2.1v4.92h-3.6Zm0-3.36v-4.56l-2.25,4.56Z"/><path class="cls-4" d="M302.92,246.12v-13.8a4.95,4.95,0,0,1,9.9,0V235h-3.6v-2.94a1.35,1.35,0,0,0-2.7,0v14.28a1.35,1.35,0,1,0,2.7,0v-4.08h-1.5v-3.36h5.1v7.2a4.95,4.95,0,0,1-9.9,0Z"/><path class="cls-5" d="M319.87,246.12v-18.3h3.6v18.54a1.35,1.35,0,0,0,2.7,0V227.82h3.6v18.3a4.95,4.95,0,1,1-9.9,0Z"/><path class="cls-5" d="M337.42,227.82H341v6.84l3.09-6.84h4l-4,8.79,4.2,14H344.5l-2.67-9-.81,1.77v7.23h-3.6Z"/><path class="cls-4" d="M219.82,282.12v-13.8a4.95,4.95,0,0,1,9.9,0v13.8a4.95,4.95,0,1,1-9.9,0Zm6.3.24V268.08a1.35,1.35,0,0,0-2.7,0v14.28a1.35,1.35,0,0,0,2.7,0Z"/><path class="cls-4" d="M237.22,263.82h3L244.12,275V263.82h3.6v22.8h-3l-3.9-11.07v11.07h-3.6Z"/><path class="cls-4" d="M255.52,263.82h3.6v19.44h5.1v3.36h-8.7Z"/><path class="cls-4" d="M270.22,263.82h3.6v22.8h-3.6Z"/><path class="cls-4" d="M281.62,263.82h3L288.52,275V263.82h3.6v22.8h-3l-3.9-11.07v11.07h-3.6Z"/><path class="cls-4" d="M299.92,263.82h9.3v3.36h-5.7v6.36H308v3.36h-4.5v6.36h5.7v3.36h-9.3Z"/><path class="cls-5" d="M219.22,320.82c0-6.9,6.3-9.18,6.3-15v-1.74a1.35,1.35,0,0,0-2.7,0V307h-3.6v-2.7a5,5,0,0,1,9.9,0v1.8c0,6.06-4.77,8.31-6,13.14h6v3.36h-9.9Z"/><path class="cls-5" d="M235.72,318.12v-13.8a5,5,0,0,1,9.9,0v13.8a4.95,4.95,0,0,1-9.9,0Zm6.3.24V304.08a1.35,1.35,0,0,0-2.7,0v14.28a1.35,1.35,0,1,0,2.7,0Z"/><path class="cls-5" d="M252.22,320.82c0-6.9,6.3-9.18,6.3-15v-1.74a1.35,1.35,0,0,0-2.7,0V307h-3.6v-2.7a4.95,4.95,0,0,1,9.9,0v1.8c0,6.06-4.77,8.31-6,13.14h6v3.36h-9.9Z"/><path class="cls-5" d="M268.72,318.12v-13.8a4.95,4.95,0,0,1,9.9,0v13.8a4.95,4.95,0,1,1-9.9,0Zm6.3.24V304.08a1.35,1.35,0,0,0-2.7,0v14.28a1.35,1.35,0,1,0,2.7,0Z"/><polygon class="cls-6" points="110.92 119.01 72.91 119.01 72.91 181.37 110.92 145.49 110.92 119.01"/><polygon class="cls-7" points="110.92 119.01 72.91 119.01 72.91 181.37 110.92 145.49 110.92 119.01"/><path class="cls-6" d="M72.85,200.74V314.9a6.38,6.38,0,0,0,6.38,6.38h40.24a6.38,6.38,0,0,0,6.38-6.38V275.41a6.38,6.38,0,0,1,6.38-6.38h18.91a6.38,6.38,0,0,1,6.38,6.38V314.9a6.38,6.38,0,0,0,6.38,6.38H204a6.38,6.38,0,0,0,6.38-6.38V200.74L141.61,132Z"/><path class="cls-8" d="M210.37,177.68l-63-63a8.16,8.16,0,0,0-11.53,0l-92.95,93a8.14,8.14,0,0,0,0,11.53h0a8.16,8.16,0,0,0,11.53,0l81.42-81.42a8.14,8.14,0,0,1,11.53,0l63,63,18.43,18.43a8.16,8.16,0,0,0,11.53,0h0a8.16,8.16,0,0,0,0-11.53Z"/><rect class="cls-8" x="67.74" y="112.7" width="48.83" height="11.35" rx="5.67" ry="5.67"/><path class="cls-9" d="M72.85,183.33V315.06a6.22,6.22,0,0,0,6.22,6.22h40.57a6.22,6.22,0,0,0,6.21-6.22V275.24a6.21,6.21,0,0,1,6.22-6.21h19.24a6.21,6.21,0,0,1,6.21,6.21v39.82a6.22,6.22,0,0,0,6.21,6.22h40.42a6.22,6.22,0,0,0,6.22-6.22V184"/><path class="cls-10" d="M141.28,170.39a24.52,24.52,0,0,0-24.63,24.41c0,13.48,24.63,57.68,24.63,57.68s24.62-44.2,24.62-57.68A24.51,24.51,0,0,0,141.28,170.39Z"/><path class="cls-5" d="M136.87,177.71a17.51,17.51,0,0,0-13,15.3h4a13.59,13.59,0,0,1,11.93-11.76v-8.36Z"/><path class="cls-5" d="M158.75,195.75h-3.83a13.6,13.6,0,0,1-12.36,12.53h0v8.36l3.08-5A17.5,17.5,0,0,0,158.75,195.75Z"/><path class="cls-8" d="M127.85,196.05v-.28h0v0h-4v0h-4.31l4.75,2.9a17.5,17.5,0,0,0,15.58,13.43v-3.86A13.58,13.58,0,0,1,127.85,196.05Z"/><path class="cls-8" d="M163.06,193l-4.89-3a17.52,17.52,0,0,0-15.62-12.84v4a13.58,13.58,0,0,1,12.15,11V193Z"/><polygon class="cls-5" points="141.64 207.97 142.74 195.93 153.5 194.47 144.56 193.01 148.39 187.72 142.74 191.92 141.28 182.98 140.18 193.19 128.14 194.47 138.36 195.93 134.34 201.4 139.82 197.75 141.64 207.97"/><polygon class="cls-8" points="148.21 201.4 139.82 195.56 134.71 187.9 142.55 193.56 148.21 201.4"/><rect class="cls-6" x="140" y="193.28" width="2.74" height="2.74" rx="1.15" ry="1.15"/></svg>