<?xml version="1.0" encoding="UTF-8" standalone="no"?>
<svg width="800px" height="800px" viewBox="0 0 800 800" version="1.1" xmlns="http://www.w3.org/2000/svg" xmlns:xlink="http://www.w3.org/1999/xlink">
    <!-- Generator: Sketch 48.2 (47327) - http://www.bohemiancoding.com/sketch -->
    <title>FOSS4G-LOGO</title>
    <desc>Created with Sketch.</desc>
    <defs>
        <path d="M450,28.8675135 L696.410162,171.132487 C727.350269,188.995766 746.410162,222.008468 746.410162,257.735027 L746.410162,542.264973 C746.410162,577.991532 727.350269,611.004234 696.410162,628.867513 L450,771.132487 C419.059892,788.995766 380.940108,788.995766 350,771.132487 L103.589838,628.867513 C72.6497308,611.004234 53.5898385,577.991532 53.5898385,542.264973 L53.5898385,257.735027 C53.5898385,222.008468 72.6497308,188.995766 103.589838,171.132487 L350,28.8675135 C380.940108,11.004234 419.059892,11.004234 450,28.8675135 Z" id="path-1"></path>
        <polygon id="path-3" points="21.5 0 39.969697 141.25 3.03030303 141.25"></polygon>
        <polygon id="path-4" points="18.5 0 36.969697 141.25 0.0303030303 141.25"></polygon>
        <polygon id="path-5" points="56.9819101 130.534295 0.212522826 130.534295 0.212522826 94.1301463 56.9819101 71.226769"></polygon>
        <polygon id="path-6" points="113.98191 130.537507 57.2125228 130.537507 57.2125228 94.1333578 113.98191 71.2299805"></polygon>
        <rect id="path-7" x="41.363961" y="17.363961" width="12" height="6"></rect>
        <path d="M399.94357,710.720619 C387.640104,786.857917 321.609958,845 242,845 C166.131782,845 102.596847,792.194936 86.1431436,721.332757 C62.1314823,735.725827 34.0320095,744 4,744 C-84.36556,744 -156,672.36556 -156,584 C-156,495.63444 -84.36556,424 4,424 C79.8682181,424 143.403153,476.805064 159.856856,547.667243 C183.868518,533.274173 211.967991,525 242,525 C255.645078,525 268.891213,526.708079 281.536253,529.922084 C301.329576,510.779082 328.289212,499 358,499 C418.751322,499 468,548.248678 468,609 C468,654.898745 439.888455,694.231686 399.94357,710.720619 Z" id="path-8"></path>
        <path d="M501.416602,506.315465 C465.991657,476.531584 432.934542,466.603624 402.245257,476.531584 C371.555972,486.459544 340.234872,512.611964 308.281957,554.988843 C290.842351,590.837292 248.807951,622.392616 182.178757,649.654816 C115.549563,676.917016 117.071514,689.058603 186.744611,686.079577 L317.733812,765.589913 L488.484727,632.6297 L501.416602,506.315465 Z" id="path-9"></path>
        <path d="M480.666667,594.666667 C480.666667,499.857785 557.524451,423 652.333333,423 C747.142215,423 824,499.857785 824,594.666667 C824,689.475549 747.142215,766.333333 652.333333,766.333333 C652.333333,861.142215 575.475549,938 480.666667,938 C385.857785,938 309,861.142215 309,766.333333 C309,671.524451 385.857785,594.666667 480.666667,594.666667 Z" id="path-10"></path>
        <path d="M559,666 C559,608.010101 606.010101,561 664,561 C721.989899,561 769,608.010101 769,666 C769,723.989899 721.989899,771 664,771 C664,828.989899 616.989899,876 559,876 C501.010101,876 454,828.989899 454,771 C454,713.010101 501.010101,666 559,666 Z" id="path-11"></path>
        <circle id="path-12" cx="6.5" cy="6" r="6"></circle>
        <circle id="path-13" cx="6.5" cy="6" r="6"></circle>
        <circle id="path-14" cx="400" cy="40" r="6"></circle>
        <path d="M75.5726146,11.6076977 C77.4031252,11.9873696 78.773873,12.2012556 79.6848579,12.2493558 C80.5958428,12.2974559 81.7320749,12.2159388 83.0935544,12.0048045 L80.6870423,16.7895313 L78.3109318,16.7895313 L76.4061543,15.5839897 L75.4153101,13.9894677 L75.5726146,11.6076977 Z" id="path-15"></path>
        <path d="M376.010557,81 C374.832942,81.3775119 374.194582,81.6132159 374.095479,81.707112 C374.022514,81.7762433 372.058138,83.3750993 369.547421,86.0979401 C368.947817,86.7482028 368.053628,87.8304751 366.864853,89.3447571 L376.010557,87.6421987 L376.010557,81 Z" id="path-16"></path>
    </defs>
    <g id="Final" stroke="none" stroke-width="1" fill="none" fill-rule="evenodd">
        <g id="FOSS4G-LOGO">
            <g id="Oval">
                <mask id="mask-2" fill="white">
                    <use xlink:href="#path-1"></use>
                </mask>
                <use id="Mask" fill="#8E806B" xlink:href="#path-1"></use>
                <g id="Big-Ben" mask="url(#mask-2)">
                    <g transform="translate(125.000000, 341.000000)">
                        <rect id="Rectangle-2" stroke="none" fill="#EDE3D2" fill-rule="evenodd" x="3.61363636" y="101.904564" width="2.29999995" height="92.0954357"></rect>
                        <rect id="Rectangle-2-Copy" stroke="none" fill="#EDE3D2" fill-rule="evenodd" x="47.780303" y="101.904564" width="2.29999995" height="92.0954357"></rect>
                        <rect id="Rectangle-2-Copy-2" stroke="none" fill="#EDE3D2" fill-rule="evenodd" x="40.5530303" y="113.917012" width="1.60606061" height="80.0829876"></rect>
                        <rect id="Rectangle-2-Copy-3" stroke="none" fill="#EDE3D2" fill-rule="evenodd" x="30.9166667" y="113.917012" width="1.60606061" height="80.0829876"></rect>
                        <rect id="Rectangle-2-Copy-4" stroke="none" fill="#EDE3D2" fill-rule="evenodd" x="21.280303" y="113.917012" width="1.60606061" height="80.0829876"></rect>
                        <rect id="Rectangle-2-Copy-5" stroke="none" fill="#EDE3D2" fill-rule="evenodd" x="11.6439394" y="113.917012" width="1.60606061" height="80.0829876"></rect>
                        <rect id="Rectangle-3" stroke="none" fill="#EDE3D2" fill-rule="evenodd" x="5.21969697" y="130.334025" width="42.5606061" height="1.60165975"></rect>
                        <rect id="Rectangle-3-Copy" stroke="none" fill="#EDE3D2" fill-rule="evenodd" x="5.21969697" y="163.568465" width="42.5606061" height="1.60165975"></rect>
                        <rect id="Rectangle-4" stroke="#EDE3D2" stroke-width="2.3" fill="none" x="-1.15" y="52.7047718" width="55.3" height="48.7481328" rx="1.6"></rect>
                        <rect id="Rectangle-2-Copy-6" stroke="none" fill="#EDE3D2" fill-rule="evenodd" x="6.82575758" y="53.8547718" width="1.60606061" height="46.4481328"></rect>
                        <rect id="Rectangle-2-Copy-7" stroke="none" fill="#EDE3D2" fill-rule="evenodd" x="44.5681818" y="53.8547718" width="1.60606061" height="46.4481328"></rect>
                        <rect id="Rectangle-3-Copy-2" stroke="none" fill="#EDE3D2" fill-rule="evenodd" x="0" y="92.2946058" width="53" height="1.60165975"></rect>
                        <ellipse id="Oval-4" stroke="#EDE3D2" stroke-width="1.6" fill="none" cx="26.5" cy="73.4751037" rx="15.2545455" ry="15.2149378"></ellipse>
                        <ellipse id="Oval-4-Copy-2" stroke="none" fill="#EDE3D2" fill-rule="evenodd" cx="26.5" cy="73.4751037" rx="2.40909091" ry="2.40248963"></ellipse>
                        <rect id="Rectangle-5" stroke="none" fill="#EDE3D2" fill-rule="evenodd" x="25.6969697" y="60.2614108" width="1.60606061" height="4.00414938" rx="0.803030303"></rect>
                        <rect id="Rectangle-5-Copy" stroke="none" fill="#EDE3D2" fill-rule="evenodd" x="25.6969697" y="82.6846473" width="1.60606061" height="4.00414938" rx="0.803030303"></rect>
                        <rect id="Rectangle-6" stroke="none" fill="#EDE3D2" fill-rule="evenodd" x="35.7348485" y="72.2738589" width="4.01515152" height="1.60165975" rx="0.800829876"></rect>
                        <rect id="Rectangle-6-Copy" stroke="none" fill="#EDE3D2" fill-rule="evenodd" x="13.25" y="72.2738589" width="4.01515152" height="1.60165975" rx="0.800829876"></rect>
                        <path d="M26.5,-3.39211711 L46.6065054,52.403112 L6.39349458,52.403112 L26.5,-3.39211711 Z" id="Triangle" stroke="#EDE3D2" stroke-width="2.3" fill="none"></path>
                    </g>
                </g>
                <g id="Shard" mask="url(#mask-2)">
                    <g transform="translate(499.000000, 358.000000)">
                        <g id="Triangle-Copy-2" fill="none">
                            <use fill="#8E806B" fill-rule="evenodd" xlink:href="#path-3"></use>
                            <path stroke="#EDE3D2" stroke-width="2.3" d="M21.5,-8.86967903 L41.2798593,142.4 L1.72014066,142.4 L21.5,-8.86967903 Z"></path>
                        </g>
                        <g id="Triangle-Copy" fill="none">
                            <use fill="#8E806B" fill-rule="evenodd" xlink:href="#path-4"></use>
                            <path stroke="#EDE3D2" stroke-width="2.3" d="M18.5,-8.86967903 L38.2798593,142.4 L-1.27985934,142.4 L18.5,-8.86967903 Z"></path>
                        </g>
                        <rect id="Rectangle-7" fill="#EDE3D2" fill-rule="evenodd" x="16.5" y="7" width="4" height="2"></rect>
                        <rect id="Rectangle-7-Copy" fill="#EDE3D2" fill-rule="evenodd" x="15.5" y="15" width="6" height="2"></rect>
                        <rect id="Rectangle-7-Copy-2" fill="#EDE3D2" fill-rule="evenodd" x="14.5" y="23" width="8" height="2"></rect>
                        <rect id="Rectangle-7-Copy-3" fill="#EDE3D2" fill-rule="evenodd" x="13.5" y="31" width="10" height="2"></rect>
                        <rect id="Rectangle-7-Copy-4" fill="#EDE3D2" fill-rule="evenodd" x="12.5" y="39" width="12" height="2"></rect>
                        <rect id="Rectangle-7-Copy-5" fill="#EDE3D2" fill-rule="evenodd" x="11.5" y="47" width="14" height="2"></rect>
                        <rect id="Rectangle-7-Copy-6" fill="#EDE3D2" fill-rule="evenodd" x="10.5" y="55" width="16" height="2"></rect>
                        <rect id="Rectangle-7-Copy-7" fill="#EDE3D2" fill-rule="evenodd" x="9.5" y="63" width="18" height="2"></rect>
                        <rect id="Rectangle-7-Copy-8" fill="#EDE3D2" fill-rule="evenodd" x="8.5" y="71" width="20" height="2"></rect>
                        <rect id="Rectangle-7-Copy-9" fill="#EDE3D2" fill-rule="evenodd" x="7.5" y="79" width="22" height="2"></rect>
                        <rect id="Rectangle-7-Copy-10" fill="#EDE3D2" fill-rule="evenodd" x="6.5" y="87" width="24" height="2"></rect>
                        <rect id="Rectangle-7-Copy-11" fill="#EDE3D2" fill-rule="evenodd" x="5.5" y="95" width="26" height="2"></rect>
                        <rect id="Rectangle-7-Copy-12" fill="#EDE3D2" fill-rule="evenodd" x="4.5" y="103" width="28" height="2"></rect>
                        <rect id="Rectangle-7-Copy-13" fill="#EDE3D2" fill-rule="evenodd" x="3.5" y="111" width="30" height="2"></rect>
                        <rect id="Rectangle-7-Copy-14" fill="#EDE3D2" fill-rule="evenodd" x="1.5" y="119" width="32" height="2"></rect>
                        <rect id="Rectangle-7-Copy-15" fill="#EDE3D2" fill-rule="evenodd" x="0.5" y="127" width="32" height="2"></rect>
                    </g>
                </g>
                <g id="Factory" mask="url(#mask-2)">
                    <g transform="translate(211.000000, 373.000000)">
                        <g id="Factory" stroke="none" stroke-width="1" fill-rule="evenodd" transform="translate(0.000000, 21.000000)">
                            <path d="M35.1332225,84.0852707 L23.3304168,119.095473 L26.5653873,58.6708349 L26.3304168,57.9738511 C26.8657531,57.3929723 27.3969236,56.8609332 27.9239283,56.3777338 C30.2162693,53.8862336 32.6193674,52.6932342 35.1332225,52.7987358 C37.6470777,52.6932342 40.0501758,53.8862336 42.3425168,56.3777338 C42.8695215,56.8609332 43.400692,57.3929723 43.9360283,57.9738511 L43.7010578,58.6708349 L46.9360283,119.095473 L35.1332225,84.0852707 Z" id="Combined-Shape" stroke="#EDE3D2" stroke-width="2.3"></path>
                            <path d="M80.1332225,84.0852707 L68.3304168,119.095473 L71.5653873,58.6708349 L71.3304168,57.9738511 C71.8657531,57.3929723 72.3969236,56.8609332 72.9239283,56.3777338 C75.2162693,53.8862336 77.6193674,52.6932342 80.1332225,52.7987358 C82.6470777,52.6932342 85.0501758,53.8862336 87.3425168,56.3777338 C87.8695215,56.8609332 88.400692,57.3929723 88.9360283,57.9738511 L88.7010578,58.6708349 L91.9360283,119.095473 L80.1332225,84.0852707 Z" id="Combined-Shape-Copy-2" stroke="#EDE3D2" stroke-width="2.3"></path>
                            <path d="M100.133223,95.6444186 L88.3304168,120.092306 L91.5653873,77.8973272 L91.3304168,77.4106181 C91.8657531,77.0049861 92.3969236,76.6334592 92.9239283,76.2960375 C95.2162693,74.5562041 97.6193674,73.7231237 100.133223,73.7967962 C102.647078,73.7231237 105.050176,74.5562041 107.342517,76.2960375 C107.869521,76.6334592 108.400692,77.0049861 108.936028,77.4106181 L108.701058,77.8973272 L111.936028,120.092306 L100.133223,95.6444186 Z" id="Combined-Shape-Copy-7" stroke="#EDE3D2" stroke-width="2.3"></path>
                            <path d="M15.1332225,95.6444186 L3.33041682,120.092306 L6.56538733,77.8973272 L6.33041682,77.4106181 C6.86575313,77.0049861 7.39692361,76.6334592 7.92392825,76.2960375 C10.2162693,74.5562041 12.6193674,73.7231237 15.1332225,73.7967962 C17.6470777,73.7231237 20.0501758,74.5562041 22.3425168,76.2960375 C22.8695215,76.6334592 23.400692,77.0049861 23.9360283,77.4106181 L23.7010578,77.8973272 L26.9360283,120.092306 L15.1332225,95.6444186 Z" id="Combined-Shape-Copy-8" stroke="#EDE3D2" stroke-width="2.3"></path>
                            <path d="M57.6354171,32.0852707 L45.3304168,67.0954734 L48.7030313,6.67083495 L48.4580631,5.97385107 C49.0161773,5.39297228 49.5699484,4.86093321 50.1193764,4.37773384 C52.5092537,1.88623359 55.0146006,0.693234232 57.6354171,0.798735769 C60.2562337,0.693234232 62.7615806,1.88623359 65.1514578,4.37773384 C65.7008859,4.86093321 66.254657,5.39297228 66.8127712,5.97385107 L66.567803,6.67083495 L69.9404174,67.0954734 L57.6354171,32.0852707 Z" id="Combined-Shape-Copy-3" stroke="#EDE3D2" stroke-width="2.3"></path>
                            <path d="M57.6354171,49.2946181 L45.3304168,72 L48.7030313,32.8124379 L48.4580631,32.3604187 C49.0161773,31.9836978 49.5699484,31.6386512 50.1193764,31.325279 C52.5092537,29.709451 55.0146006,28.9357478 57.6354171,29.0041694 C60.2562337,28.9357478 62.7615806,29.709451 65.1514578,31.325279 C65.7008859,31.6386512 66.254657,31.9836978 66.8127712,32.3604187 L66.567803,32.8124379 L69.9404174,72 L57.6354171,49.2946181 Z" id="Combined-Shape-Copy-6" fill="#8E806B"></path>
                            <g id="Path-6">
                                <use fill="#8E806B" fill-rule="evenodd" xlink:href="#path-5"></use>
                                <path stroke="#EDE3D2" stroke-width="2.3" d="M55.8319101,129.384295 L55.8319101,72.9307969 L1.36252283,94.9062486 L1.36252283,129.384295 L55.8319101,129.384295 Z"></path>
                            </g>
                            <g id="Path-6-Copy" transform="translate(85.597216, 100.883744) scale(-1, 1) translate(-85.597216, -100.883744) ">
                                <use fill="#8E806B" fill-rule="evenodd" xlink:href="#path-6"></use>
                                <path stroke="#EDE3D2" stroke-width="2.3" d="M112.83191,129.387507 L112.83191,72.9340084 L58.3625228,94.9094601 L58.3625228,129.387507 L112.83191,129.387507 Z"></path>
                            </g>
                        </g>
                        <g id="Windows-Left" stroke="none" stroke-width="1" fill-rule="evenodd" transform="translate(5.000000, 110.000000)">
                            <path d="M1.15,12.8288731 L1.15,26.4044602 L4.85,25.1711269 L4.85,11.5955398 L1.15,12.8288731 Z" id="Rectangle-8" stroke="#EDE3D2" stroke-width="2.3"></path>
                            <path d="M12.15,8.8288731 L12.15,22.4044602 L15.85,21.1711269 L15.85,7.59553977 L12.15,8.8288731 Z" id="Rectangle-8-Copy" stroke="#EDE3D2" stroke-width="2.3"></path>
                            <path d="M23.15,5.8288731 L23.15,19.4044602 L26.85,18.1711269 L26.85,4.59553977 L23.15,5.8288731 Z" id="Rectangle-8-Copy-2" stroke="#EDE3D2" stroke-width="2.3"></path>
                            <path d="M34.15,2.8288731 L34.15,16.4044602 L37.85,15.1711269 L37.85,1.59553977 L34.15,2.8288731 Z" id="Rectangle-8-Copy-3" stroke="#EDE3D2" stroke-width="2.3"></path>
                        </g>
                        <g id="Windows-Right" stroke="none" stroke-width="1" fill-rule="evenodd" transform="translate(89.500000, 124.000000) scale(-1, 1) translate(-89.500000, -124.000000) translate(70.000000, 110.000000)">
                            <path d="M1.15,12.8288731 L1.15,26.4044602 L4.85,25.1711269 L4.85,11.5955398 L1.15,12.8288731 Z" id="Rectangle-8" stroke="#EDE3D2" stroke-width="2.3"></path>
                            <path d="M12.15,8.8288731 L12.15,22.4044602 L15.85,21.1711269 L15.85,7.59553977 L12.15,8.8288731 Z" id="Rectangle-8-Copy" stroke="#EDE3D2" stroke-width="2.3"></path>
                            <path d="M23.15,5.8288731 L23.15,19.4044602 L26.85,18.1711269 L26.85,4.59553977 L23.15,5.8288731 Z" id="Rectangle-8-Copy-2" stroke="#EDE3D2" stroke-width="2.3"></path>
                            <path d="M34.15,2.8288731 L34.15,16.4044602 L37.85,15.1711269 L37.85,1.59553977 L34.15,2.8288731 Z" id="Rectangle-8-Copy-3" stroke="#EDE3D2" stroke-width="2.3"></path>
                        </g>
                        <path d="M59.0759957,19.9444466 C61.0783849,14.2234172 66.5472624,11.5313889 75.4826281,11.8683618 C84.4179939,12.2053347 88.2073984,8.27247591 86.8508419,0.069785521 C84.384778,4.732335 80.5953734,7.06360973 75.4826281,7.06360973 C67.8135102,7.06360973 60.4537335,8.96327034 59.7648646,14.7151088 C59.3056187,18.5496677 59.0759957,20.2927803 59.0759957,19.9444466 Z" id="Path-8" stroke="#EDE3D2" stroke-width="2.3"></path>
                        <path d="M80.0759957,71.9444466 C82.0783849,66.2234172 87.5472624,63.5313889 96.4826281,63.8683618 C105.417994,64.2053347 109.207398,60.2724759 107.850842,52.0697855 C105.384778,56.732335 101.595373,59.0636097 96.4826281,59.0636097 C88.8135102,59.0636097 81.4537335,60.9632703 80.7648646,66.7151088 C80.3056187,70.5496677 80.0759957,72.2927803 80.0759957,71.9444466 Z" id="Path-8-Copy-2" stroke="#EDE3D2" stroke-width="2.3"></path>
                        <path d="M100.075996,92.9444466 C102.078385,87.2234172 107.547262,84.5313889 116.482628,84.8683618 C125.417994,85.2053347 129.207398,81.2724759 127.850842,73.0697855 C125.384778,77.732335 121.595373,80.0636097 116.482628,80.0636097 C108.81351,80.0636097 101.453733,81.9632703 100.764865,87.7151088 C100.305619,91.5496677 100.075996,93.2927803 100.075996,92.9444466 Z" id="Path-8-Copy" stroke="#EDE3D2" stroke-width="2.3"></path>
                    </g>
                </g>
                <g id="Gherkin-Copy" mask="url(#mask-2)" stroke="#EDE3D2" stroke-width="2">
                    <g transform="translate(371.000000, 345.000000)">
                        <path d="M52.7051223,179.5039 C52.4863982,180.556605 52.6239662,180.547844 44.94706,180.753483 C40.9906989,180.859461 35.6266614,180.927125 29.9936042,180.945352 C24.181455,180.964158 18.5545488,180.928828 14.3850494,180.843985 C6.38414575,180.681177 6.44710831,180.684745 6.22498554,179.618571 C2.15827153,160.098614 -0.09375,135.862654 -0.09375,110.300752 C-0.09375,48.7362777 12.7784678,-1 29.453125,-1 C46.1277822,-1 59,48.7362777 59,110.300752 C59,135.811677 56.7569902,160.002504 52.7051223,179.5039 Z" id="Oval-5"></path>
                        <path d="M0.200012207,93.540861 C2.03366282,111.576436 15.8677709,139.120095 41.7023363,176.171837" id="Path-9-Copy"></path>
                        <path d="M3.40002441,57.4506355 C5.23367503,75.4862107 19.0677831,103.029869 44.9023485,140.081611" id="Path-9"></path>
                        <path d="M10.3637528,24.9694324 C12.1974034,43.0050077 26.0315114,70.5486663 51.8660769,107.600408" id="Path-9-Copy-2"></path>
                        <path d="M17.1500244,93.540861 C18.983675,111.576436 32.8177831,139.120095 58.6523485,176.171837" id="Path-9-Copy-5" transform="translate(37.901186, 134.856349) scale(-1, 1) translate(-37.901186, -134.856349) "></path>
                        <path d="M13.9699707,57.4506355 C15.8036213,75.4862107 29.6377294,103.029869 55.4722948,140.081611" id="Path-9-Copy-4" transform="translate(34.721133, 98.766123) scale(-1, 1) translate(-34.721133, -98.766123) "></path>
                        <path d="M7.09997559,24.9694324 C8.9336262,43.0050077 22.7677342,70.5486663 48.6022997,107.600408" id="Path-9-Copy-3" transform="translate(27.851138, 66.284920) scale(-1, 1) translate(-27.851138, -66.284920) "></path>
                    </g>
                </g>
                <g id="Observatory-Copy" mask="url(#mask-2)">
                    <g transform="translate(588.000000, 345.000000)">
                        <path d="M-1.3,40 C-1.3,23.8180568 11.8180568,10.7 28,10.7 C44.1819432,10.7 57.3,23.8180568 57.3,40 L57.3,89.3 L-1.3,89.3 L-1.3,40 Z" id="Combined-Shape" stroke="#EDE3D2" stroke-width="2.6"></path>
                        <rect id="Rectangle-12" stroke="#EDE3D2" stroke-width="2.6" x="-1.3" y="49.7" width="58.6" height="7.6"></rect>
                        <path d="M49,36 C49,25.5065898 40.4934102,17 30,17" id="Oval-7" stroke="#EDE3D2" stroke-width="2.6"></path>
                        <g id="Rectangle-11-Copy" stroke="none" transform="translate(47.363961, 20.363961) rotate(45.000000) translate(-47.363961, -20.363961) ">
                            <use fill="#8E806B" fill-rule="evenodd" xlink:href="#path-7"></use>
                            <rect stroke="#EDE3D2" stroke-width="2.6" x="40.063961" y="16.063961" width="14.6" height="8.6"></rect>
                        </g>
                        <rect id="Rectangle-11" stroke="#EDE3D2" stroke-width="2.6" transform="translate(56.606602, 10.606602) rotate(45.000000) translate(-56.606602, -10.606602) " x="46.3066017" y="3.30660172" width="20.6" height="14.6" rx="3"></rect>
                    </g>
                </g>
                <g id="Combined-Shape" mask="url(#mask-2)">
                    <use fill="#6F8C52" fill-rule="evenodd" xlink:href="#path-8"></use>
                    <path stroke="#EDE3D2" stroke-width="7" d="M403.077416,713.195368 C389.579016,790.875785 321.855911,848.5 242,848.5 C167.147202,848.5 102.546484,797.794026 83.8657633,726.699382 C59.6918257,740.259325 32.3728482,747.5 4,747.5 C-86.2985566,747.5 -159.5,674.298557 -159.5,584 C-159.5,493.701443 -86.2985566,420.5 4,420.5 C78.8527981,420.5 143.453516,471.205974 162.134237,542.300618 C186.308174,528.740675 213.627152,521.5 242,521.5 C255.102174,521.5 268.004194,523.041921 280.515406,526.063283 C301.374315,506.563966 328.82017,495.5 358,495.5 C420.684319,495.5 471.5,546.315681 471.5,609 C471.5,654.715579 444.220764,695.380547 403.077416,713.195368 Z"></path>
                </g>
                <g id="Path-2" mask="url(#mask-2)">
                    <use fill="#9BC372" fill-rule="evenodd" xlink:href="#path-9"></use>
                    <path stroke="#EDE3D2" stroke-width="7" d="M485.155144,630.786424 L486.334384,629.868174 L485.002926,632.273238 L485.155144,630.786424 Z M185.833573,689.620902 C148.796589,691.146369 131.020087,688.774067 129.875502,679.642975 C128.783987,670.935258 145.182419,661.010705 180.853342,646.415483 C246.761435,619.448331 288.144708,588.38181 305.134628,553.457726 L305.283068,553.152597 L305.487356,552.881665 C337.835002,509.981281 369.687005,483.385569 401.167977,473.201499 C433.148818,462.855722 467.398692,473.1419 503.668968,503.636501 L505.087098,504.828808 L491.814309,634.472976 L317.980356,769.833889 L185.833573,689.620902 Z"></path>
                </g>
                <g id="Combined-Shape-Copy" mask="url(#mask-2)">
                    <use fill="#B8E986" fill-rule="evenodd" xlink:href="#path-10"></use>
                    <path stroke="#EDE3D2" stroke-width="7" d="M477.200282,591.200244 C479.046998,496.058321 556.749588,419.5 652.333333,419.5 C749.075212,419.5 827.5,497.924788 827.5,594.666667 C827.5,690.250412 750.941679,767.953002 655.799756,769.799718 C653.953023,864.941659 576.250424,941.5 480.666667,941.5 C383.924788,941.5 305.5,863.075212 305.5,766.333333 C305.5,670.749576 382.058341,593.046977 477.200281,591.200281 Z"></path>
                </g>
                <g id="Combined-Shape" mask="url(#mask-2)">
                    <use fill="#B8E986" fill-rule="evenodd" xlink:href="#path-11"></use>
                    <path stroke="#EDE3D2" stroke-width="7" d="M555.553694,662.553694 C557.373677,604.225615 605.230163,557.5 664,557.5 C723.922895,557.5 772.5,606.077105 772.5,666 C772.5,724.769837 725.774385,772.626323 667.446306,774.446306 C665.626323,832.774385 617.769837,879.5 559,879.5 C499.077105,879.5 450.5,830.922895 450.5,771 C450.5,712.230163 497.225615,664.373677 555.553694,662.553694 Z"></path>
                </g>
            </g>
            <g id="Right" transform="translate(708.000000, 215.000000)" fill="#EDE3D2">
                <rect id="Top-Right-Copy-2" transform="translate(6.500000, 112.500000) rotate(90.000000) translate(-6.500000, -112.500000) " x="-79" y="107.5" width="171" height="10" rx="5"></rect>
            </g>
            <g id="Left" transform="translate(78.000000, 215.000000)" fill="#EDE3D2">
                <rect id="Top-Right-Copy-2" transform="translate(6.500000, 112.500000) rotate(90.000000) translate(-6.500000, -112.500000) " x="-79" y="107.5" width="171" height="10" rx="5"></rect>
            </g>
            <g id="Top-Left" transform="translate(232.670471, 136.629165) rotate(-120.000000) translate(-232.670471, -136.629165) translate(226.170471, -39.370835)">
                <rect id="Top-Right-Copy-2" fill="#EDE3D2" transform="translate(6.500000, 189.500000) rotate(90.000000) translate(-6.500000, -189.500000) " x="-156" y="184.5" width="325" height="10" rx="5"></rect>
                <g id="Oval-3">
                    <use fill="#EDE3D2" fill-rule="evenodd" xlink:href="#path-12"></use>
                    <circle stroke="#EDE3D2" stroke-width="1" cx="6.5" cy="6" r="6.5"></circle>
                </g>
            </g>
            <g id="Top-Right" transform="translate(564.670471, 136.629165) scale(-1, 1) rotate(-120.000000) translate(-564.670471, -136.629165) translate(558.170471, -39.370835)">
                <rect id="Top-Right-Copy-2" fill="#EDE3D2" transform="translate(6.500000, 189.500000) rotate(90.000000) translate(-6.500000, -189.500000) " x="-156" y="184.5" width="325" height="10" rx="5"></rect>
                <g id="Oval-3">
                    <use fill="#EDE3D2" fill-rule="evenodd" xlink:href="#path-13"></use>
                    <circle stroke="#EDE3D2" stroke-width="1" cx="6.5" cy="6" r="6.5"></circle>
                </g>
            </g>
            <g id="Center">
                <use fill="#EDE3D2" fill-rule="evenodd" xlink:href="#path-14"></use>
                <circle stroke="#EDE3D2" stroke-width="1" cx="400" cy="40" r="6.5"></circle>
            </g>
            <g id="Foss4g" transform="translate(344.000000, 85.000000)">
                <path d="M33.3039362,6.75417946 L33.3438641,6.81625912 L33.2599196,6.69388479 L33.3039362,6.75417946 Z M33.3039362,6.75417946 L35.6031399,9.90366699 L40.8357247,16.5968423 L48.4262445,25.5386343 L60.455822,39.2094974 L72.2287914,51.9718426 C72.6452916,52.4233446 72.8953853,53.0033716 72.9377882,53.6161753 L73.7761802,65.7325584 C73.833874,66.5663444 73.5021827,67.3798456 72.8779349,67.9355816 L43.2303879,94.3292805 C42.2245776,95.2247021 40.7127401,95.2420863 39.686606,94.3700295 L34.2765979,89.7723511 L34.1899273,89.6823434 L25.9834849,81.1575934 L15.4156456,69.3625356 L15.3350999,69.2680141 L4.36012279,55.7210911 L4.23680897,55.4717375 C4.03535837,55.064383 2.69619897,52.9780102 0.424896001,49.5609623 C-2.5328468,45.1112043 -2.33408068,40.2705143 0.906706541,35.5549052 L1.0324454,35.3874317 L4.52438262,31.1213501 L15.3365952,17.5848789 L26.8974722,3.34242499 C27.0778761,3.12017586 27.292475,2.92802894 27.5332297,2.77318236 C28.7873893,1.96654239 30.4579975,2.32932877 31.2646375,3.58348841 L33.3039362,6.75417946 Z M40.8357247,16.5968423 L40.8667648,16.6365467 L40.8030553,16.5583571 L40.8357247,16.5968423 Z" id="Path-3" stroke="#EDE3D2" stroke-width="5"></path>
                <path d="M101.983198,57.991808 L97.2747403,59.4398876 L91.608637,61.9403361 L87.2228693,64.3685558 L83.5749588,67.0735006 L79.0813046,74.1351105 C78.280745,75.3931601 76.6119125,75.764029 75.3538629,74.9634694 C74.6098681,74.4900284 74.143964,73.6830919 74.1059182,72.8020545 L73.3009458,54.1444501 L72.8297777,47.1339119 L72.8241505,46.9662687 L72.8241505,36.0667287 L72.8330871,35.8555337 L73.0903185,32.821467 L73.1136804,32.6321007 L74.1879367,26.014028 L75.149303,22.7175141 C75.2085572,22.5143323 75.2861188,22.3169439 75.3810567,22.127731 L76.3999126,20.0972318 C76.6239959,19.6506296 76.9411074,19.2571845 77.3299226,18.943354 C83.8397326,13.6889899 89.0361562,10.6631987 93.1113594,9.8851083 C96.7658861,9.18733884 99.3237137,8.80736136 100.882521,8.74402913 L106.61067,8.1792431 C108.081124,8.03425877 109.394989,9.09818089 109.558931,10.5666421 L114.300453,53.0374863 C114.456181,54.4323774 113.517203,55.7139612 112.140242,55.9858969 L101.983198,57.991808 Z" id="Path-4" stroke="#EDE3D2" stroke-width="5"></path>
                <path d="M52.6756851,22.4337072 L52.7114557,22.4773148 L52.6379843,22.3917572 L52.6756851,22.4337072 Z M49.9675061,5.79894112 L50.029993,5.82919379 L49.9034365,5.77220291 L49.9675061,5.79894112 Z M49.9675061,5.79894112 L57.3146394,8.86512775 L65.4215273,11.512584 L69.7393197,12.9222662 L72.6045263,13.6316526 L75.6243265,14.1732432 C77.0921487,14.436567 78.0685875,15.8399381 77.8052637,17.3077603 C77.7489967,17.6214046 77.6376563,17.9226134 77.4763953,18.1974473 C74.4699096,23.3213396 72.8596853,28.5710193 72.6236689,33.9752942 C72.5177859,36.399791 72.4559523,38.4791569 72.4380091,40.2111093 C72.4122579,42.6962539 70.3767779,44.6899893 67.8916326,44.6642429 C66.6311273,44.6511839 65.4338916,44.110017 64.5912815,43.1724391 L48.919128,25.7339284 L48.8456565,25.6483708 L35.7346421,9.6648787 L35.6186016,9.51177682 L31.9395853,4.24931774 L30.8866908,1.83980393 C30.2896057,0.473394792 30.9132661,-1.11833173 32.2796753,-1.71541677 C33.0025164,-2.03127942 33.8273407,-2.01522875 34.5373462,-1.67148361 L49.9675061,5.79894112 Z M57.3146394,8.86512775 L57.406636,8.90352076 L57.219878,8.83418163 L57.3146394,8.86512775 Z M72.6045263,13.6316526 L72.6837215,13.6512603 L72.5242212,13.6172502 L72.6045263,13.6316526 Z" id="Path-5" stroke="#EDE3D2" stroke-width="5"></path>
                <g id="Path-11">
                    <use fill="#EDE3D2" fill-rule="evenodd" xlink:href="#path-15"></use>
                    <path stroke="#EDE3D2" stroke-width="1" d="M76.0338139,12.2116786 L75.9248139,13.8620638 L76.7703651,15.2227723 L78.4558636,16.2895313 L80.3788411,16.2895313 L82.219451,12.6299546 C81.2365306,12.7470904 80.3834744,12.7869393 79.6584945,12.7486603 C78.8146011,12.7041026 77.6088035,12.5250064 76.0338139,12.2116786 Z"></path>
                </g>
            </g>
            <text id="Foss4g" font-family="Merriweather-Regular, Merriweather" font-size="52" font-weight="normal" letter-spacing="3.311258" fill="#EDE3D2">
                <tspan x="288.370913" y="247">FOSS4G</tspan>
            </text>
            <text id="UK-2018" font-family="Merriweather-Regular, Merriweather" font-size="52" font-weight="normal" letter-spacing="7.42857122" fill="#EDE3D2">
                <tspan x="282.5" y="312">UK 2018</tspan>
            </text>

            <g id="Path-10">
                <use fill="#EDE3D2" fill-rule="evenodd" xlink:href="#path-16"></use>
                <path stroke="#EDE3D2" stroke-width="1" d="M375.510557,81.6900655 C374.85957,81.908312 374.448641,82.061287 374.439368,82.0700723 C374.536727,81.9778289 373.662286,82.7344101 373.074081,83.2753999 C372.068084,84.2006468 371.004431,85.2554134 369.915003,86.4368852 C369.473172,86.9160452 368.863062,87.6406249 368.086553,88.6087362 L375.510557,87.2266883 L375.510557,81.6900655 Z"></path>
            </g>
        </g>
    </g>
</svg>