<?xml version="1.0" encoding="UTF-8" standalone="no"?>
<svg
   xmlns:dc="http://purl.org/dc/elements/1.1/"
   xmlns:cc="http://creativecommons.org/ns#"
   xmlns:rdf="http://www.w3.org/1999/02/22-rdf-syntax-ns#"
   xmlns:svg="http://www.w3.org/2000/svg"
   xmlns="http://www.w3.org/2000/svg"
   xmlns:sodipodi="http://sodipodi.sourceforge.net/DTD/sodipodi-0.dtd"
   xmlns:inkscape="http://www.inkscape.org/namespaces/inkscape"
   inkscape:export-ydpi="96"
   inkscape:export-xdpi="96"
   inkscape:export-filename="/Users/shfeldman/OneDrive/Work/OSGeo UK/FOSS4GUK 2020/FOSS4GUK 2020 Logo_RosalindCottle_v4_sf.png"
   inkscape:version="1.0 (4035a4f, 2020-05-01)"
   sodipodi:docname="FOSS4GUK 2020 Logo_RosalindCottle_v4_sf.svg"
   version="1.1"
   viewBox="0 0 800 400"
   data-name="Layer 1"
   id="Layer_1">
  <metadata
     id="metadata394">
    <rdf:RDF>
      <cc:Work
         rdf:about="">
        <dc:format>image/svg+xml</dc:format>
        <dc:type
           rdf:resource="http://purl.org/dc/dcmitype/StillImage" />
      </cc:Work>
    </rdf:RDF>
  </metadata>
  <sodipodi:namedview
     inkscape:current-layer="Layer_1"
     inkscape:window-maximized="0"
     inkscape:window-y="0"
     inkscape:window-x="0"
     inkscape:cy="185.62003"
     inkscape:cx="209.00626"
     inkscape:zoom="2.2745206"
     showgrid="false"
     id="namedview392"
     inkscape:window-height="900"
     inkscape:window-width="1440"
     inkscape:pageshadow="2"
     inkscape:pageopacity="0"
     guidetolerance="10"
     gridtolerance="10"
     objecttolerance="10"
     borderopacity="1"
     bordercolor="#666666"
     pagecolor="#ffffff" />
  <defs
     id="defs315">
    <rect
       id="rect1239"
       height="47.922186"
       width="53.637676"
       y="94.525412"
       x="230.37821" />
    <style
       id="style313">.cls-1,.cls-5,.cls-6{fill:#3aaa35;}.cls-1,.cls-2,.cls-3,.cls-7,.cls-9{stroke:#1a5e2b;}.cls-1,.cls-2,.cls-9{stroke-linecap:round;}.cls-1,.cls-2,.cls-3,.cls-9{stroke-linejoin:round;}.cls-10,.cls-2{fill:#fff;}.cls-3,.cls-7,.cls-9{fill:none;stroke-width:4px;}.cls-4{fill:#1d1d1b;}.cls-6{opacity:0.5;}.cls-7{stroke-miterlimit:10;}.cls-8{fill:#1a5e2b;}</style>
  </defs>
  <title
     id="title317">Artboard 1</title>
  <path
     style="stroke:#003a40;stroke-opacity:1;fill:#4db05b;fill-opacity:1;opacity:1"
     id="path319"
     d="M102.94,130.91l-11.33-3.55A6.12,6.12,0,0,1,88,124.28h0a6.11,6.11,0,0,1-.39-4.54l2.13-6.93a18,18,0,0,0,9-1.41,94.78,94.78,0,0,0,9.74-6.18L113.9,116h0a1.59,1.59,0,0,0,2.41,1.26,11.08,11.08,0,0,0,3.22-3.17c.51-.72,1-1.39,1.33-2a9.06,9.06,0,0,0,.87-7.8h0a3.67,3.67,0,0,1,1.18-4.11c4.64-3.67,15.65-12.33,17.42-13.22l1.56-.79a1,1,0,0,1,1.2.23h0a3.38,3.38,0,0,0,4.9.13L156.4,78a13.42,13.42,0,0,1,8.25-3.91h0a6.24,6.24,0,0,0,3.57-1.54c1.48-1.3,4.19-3.67,8.71-7.58,7.87-6.8,20.21-19,28.21-24.29A47.57,47.57,0,0,1,221.52,34s-15.87,8.33-27.35,20.4-16.81,22-24.56,25.28c-3.79,1.6-5.93,2-7.14,2a7,7,0,0,0-5.65,2.82l-.09.12c-3,4-6.72,10.92-9,12.06a3.39,3.39,0,0,1-3,0,4.47,4.47,0,0,0-4.92.76c-2.94,2.77-7.36,7.11-8.42,9.08-1.61,3-2.36,4.65-2.36,4.65s-1.73,5.89-4.59,9.53a8.86,8.86,0,0,1-1.07,1.14,12.78,12.78,0,0,1-13.17,2.24l-2.41-.93-1.87.63Z"
     class="cls-1" />
  <path
     style="stroke:#003a40;stroke-opacity:1"
     id="path321"
     d="M104.52,118.51l1.52,3.63-3,8.45a.37.37,0,0,1-.45.22l-11-3.45A6.12,6.12,0,0,1,88,124.28h0a6.11,6.11,0,0,1-.39-4.54l1.71-5.56a1.34,1.34,0,0,1,1.75-.86Z"
     class="cls-2" />
  <path
     style="stroke:#003a40;stroke-opacity:1"
     id="path323"
     d="M106.17,124.26l-3.81-8.33a6.2,6.2,0,0,1,2-7.64l4.68-3.7,5.43,10.75S110.15,117.86,106.17,124.26Z"
     class="cls-2" />
  <line
     style="stroke:#003a40;stroke-opacity:1"
     id="line325"
     y2="107.02"
     x2="131.29"
     y1="101.01"
     x1="122.25"
     class="cls-3" />
  <polygon
     style="fill:#4db05b;fill-opacity:1"
     id="polygon363"
     points="114.87 133.48 76.86 133.48 76.86 195.83 114.87 159.96 114.87 133.48"
     class="cls-6" />
  <polygon
     style="stroke:#003a40;stroke-opacity:1"
     id="polygon365"
     points="114.87 133.48 76.86 133.48 76.86 195.83 114.87 159.96 114.87 133.48"
     class="cls-7" />
  <path
     style="fill:#4db05b;fill-opacity:1"
     id="path367"
     d="M76.8,215.21V329.37a6.37,6.37,0,0,0,6.38,6.37h40.24a6.37,6.37,0,0,0,6.38-6.37v-39.5a6.38,6.38,0,0,1,6.38-6.37h18.91a6.38,6.38,0,0,1,6.38,6.37v39.5a6.37,6.37,0,0,0,6.37,6.37h40.1a6.38,6.38,0,0,0,6.38-6.37V215.21l-68.76-68.76Z"
     class="cls-6" />
  <path
     style="fill:#003a40;fill-opacity:1"
     id="path369"
     d="M214.32,192.14l-63-63a8.16,8.16,0,0,0-11.53,0l-92.95,93a8.14,8.14,0,0,0,0,11.53h0a8.16,8.16,0,0,0,11.53,0l81.42-81.43a8.16,8.16,0,0,1,11.53,0l63,63,18.43,18.43a8.16,8.16,0,0,0,11.53,0h0a8.16,8.16,0,0,0,0-11.53Z"
     class="cls-8" />
  <rect
     style="fill:#003a40;fill-opacity:1"
     id="rect371"
     ry="5.67"
     rx="5.67"
     height="11.35"
     width="48.83"
     y="127.17"
     x="71.69"
     class="cls-8" />
  <path
     style="stroke:#003a40;stroke-opacity:1"
     id="path373"
     d="M76.8,197.8V329.53A6.21,6.21,0,0,0,83,335.74h40.58a6.21,6.21,0,0,0,6.21-6.21V289.71A6.21,6.21,0,0,1,136,283.5h19.24a6.22,6.22,0,0,1,6.22,6.21v39.82a6.21,6.21,0,0,0,6.21,6.21H208.1a6.22,6.22,0,0,0,6.22-6.21V198.47"
     class="cls-9" />
  <path
     id="path375"
     d="M145.22,184.86a24.51,24.51,0,0,0-24.62,24.4c0,13.48,24.62,57.69,24.62,57.69s24.63-44.21,24.63-57.69A24.51,24.51,0,0,0,145.22,184.86Z"
     class="cls-10" />
  <path
     style="fill:#4db05b;fill-opacity:1"
     id="path377"
     d="M140.81,192.17a17.53,17.53,0,0,0-13,15.31h4a13.58,13.58,0,0,1,11.92-11.76v-8.36Z"
     class="cls-5" />
  <path
     style="fill:#4db05b;fill-opacity:1"
     id="path379"
     d="M162.7,210.21h-3.83a13.6,13.6,0,0,1-12.36,12.54h0v8.36l3.08-5A17.53,17.53,0,0,0,162.7,210.21Z"
     class="cls-5" />
  <path
     style="fill:#003a40;fill-opacity:1"
     id="path381"
     d="M131.8,210.52v-.29h0v0h-4v0h-4.31l4.74,2.91a17.52,17.52,0,0,0,15.58,13.43v-3.86A13.58,13.58,0,0,1,131.8,210.52Z"
     class="cls-8" />
  <path
     style="fill:#003a40;fill-opacity:1"
     id="path383"
     d="M167,207.5l-4.89-3a17.52,17.52,0,0,0-15.62-12.84v4a13.58,13.58,0,0,1,12.15,10.95v.87Z"
     class="cls-8" />
  <polygon
     style="fill:#4db05b;fill-opacity:1"
     id="polygon385"
     points="145.59 222.44 146.68 210.4 157.45 208.94 148.51 207.48 152.34 202.19 146.68 206.38 145.22 197.44 144.13 207.66 132.09 208.94 142.31 210.4 138.29 215.87 143.76 212.22 145.59 222.44"
     class="cls-5" />
  <polygon
     style="fill:#003a40;fill-opacity:1"
     id="polygon387"
     points="152.16 215.87 143.76 210.03 138.66 202.37 146.5 208.03 152.16 215.87"
     class="cls-8" />
  <rect
     style="fill:#ffffff;opacity:0.99999999"
     id="rect389"
     ry="1.15"
     rx="1.15"
     height="2.74"
     width="2.74"
     y="207.75"
     x="143.95"
     class="cls-6" />
  <text
     style="fill:black;fill-opacity:1;line-height:1.25;stroke:none;font-family:sans-serif;font-style:normal;font-weight:normal;font-size:40px;white-space:pre;shape-inside:url(#rect1239);"
     id="text1237"
     xml:space="preserve" />
  <text
     id="text1245"
     y="267.30908"
     x="220.70584"
     style="font-style:normal;font-weight:bold;font-size:32px;line-height:1.25;font-family:'Miriam Libre';fill:#000000;fill-opacity:1;stroke:none;-inkscape-font-specification:'Miriam Libre, Bold';font-stretch:normal;font-variant:normal;font-variant-ligatures:normal;font-variant-caps:normal;font-variant-numeric:normal;font-variant-east-asian:normal;"
     xml:space="preserve"><tspan
       style="font-style:normal;font-variant:normal;font-weight:bold;font-stretch:normal;font-size:32px;font-family:'Miriam Libre';-inkscape-font-specification:'Miriam Libre, Bold';font-variant-ligatures:normal;font-variant-caps:normal;font-variant-numeric:normal;font-variant-east-asian:normal;"
       y="267.30908"
       x="220.70584"
       id="tspan1243"
       sodipodi:role="line"><tspan
         id="tspan1249"
         style="font-style:normal;font-variant:normal;font-weight:bold;font-stretch:normal;font-size:32px;font-family:'Miriam Libre';-inkscape-font-specification:'Miriam Libre, Bold';font-variant-ligatures:normal;font-variant-caps:normal;font-variant-numeric:normal;font-variant-east-asian:normal;fill:#003a40;fill-opacity:1;">FOSS</tspan><tspan
         id="tspan1255"
         style="font-style:normal;font-variant:normal;font-weight:bold;font-stretch:normal;font-size:32px;font-family:'Miriam Libre';-inkscape-font-specification:'Miriam Libre, Bold';font-variant-ligatures:normal;font-variant-caps:normal;font-variant-numeric:normal;font-variant-east-asian:normal;fill:#4db05b;fill-opacity:1;">4</tspan><tspan
         id="tspan1253"
         style="font-style:normal;font-variant:normal;font-weight:bold;font-stretch:normal;font-size:32px;font-family:'Miriam Libre';-inkscape-font-specification:'Miriam Libre, Bold';font-variant-ligatures:normal;font-variant-caps:normal;font-variant-numeric:normal;font-variant-east-asian:normal;fill:#003a40;fill-opacity:1;">G</tspan><tspan
         id="tspan1247"
         style="font-style:normal;font-variant:normal;font-weight:bold;font-stretch:normal;font-size:32px;font-family:'Miriam Libre';-inkscape-font-specification:'Miriam Libre, Bold';font-variant-ligatures:normal;font-variant-caps:normal;font-variant-numeric:normal;font-variant-east-asian:normal;fill:#4db05b;fill-opacity:1;">UK</tspan></tspan></text>
  <text
     id="text1259"
     y="299.16235"
     x="220.70583"
     style="font-weight:bold;font-size:32px;line-height:1.25;font-family:'Miriam Libre';-inkscape-font-specification:'Miriam Libre, Bold';fill:#003a40;fill-opacity:1"
     xml:space="preserve"><tspan
       y="299.16235"
       x="220.70583"
       id="tspan1257"
       sodipodi:role="line">ONLINE</tspan></text>
  <text
     id="text1263"
     y="330.37775"
     x="222.9041"
     style="font-weight:bold;font-size:32px;line-height:1.25;font-family:'Miriam Libre';-inkscape-font-specification:'Miriam Libre, Bold'"
     xml:space="preserve"><tspan
       style="fill:#4db05b;fill-opacity:1"
       y="330.37775"
       x="222.9041"
       id="tspan1261"
       sodipodi:role="line">2020</tspan></text>
</svg>
