<?xml version="1.0" encoding="UTF-8" standalone="no"?>
<svg
   xmlns:dc="http://purl.org/dc/elements/1.1/"
   xmlns:cc="http://creativecommons.org/ns#"
   xmlns:rdf="http://www.w3.org/1999/02/22-rdf-syntax-ns#"
   xmlns:svg="http://www.w3.org/2000/svg"
   xmlns="http://www.w3.org/2000/svg"
   xmlns:sodipodi="http://sodipodi.sourceforge.net/DTD/sodipodi-0.dtd"
   xmlns:inkscape="http://www.inkscape.org/namespaces/inkscape"
   height="400"
   width="400"
   inkscape:export-ydpi="70.04998"
   inkscape:export-xdpi="70.04998"
   inkscape:export-filename="/Users/shfeldman/OneDrive/Work/OSGeo UK/FOSS4GUK 2020/FOSS4GUK 2020 Logo_RosalindCottle_v4a_sf.png"
   inkscape:version="1.0 (4035a4f, 2020-05-01)"
   sodipodi:docname="FOSS4GUK-2020-Logo-v4 text as paths.svg"
   version="1.1"
   viewBox="0 0 400 400"
   data-name="Layer 1"
   id="Layer_1">
  <metadata
     id="metadata394">
    <rdf:RDF>
      <cc:Work
         rdf:about="">
        <dc:format>image/svg+xml</dc:format>
        <dc:type
           rdf:resource="http://purl.org/dc/dcmitype/StillImage" />
        <dc:title>Artboard 1</dc:title>
      </cc:Work>
    </rdf:RDF>
  </metadata>
  <sodipodi:namedview
     units="px"
     inkscape:current-layer="Layer_1"
     inkscape:window-maximized="0"
     inkscape:window-y="0"
     inkscape:window-x="0"
     inkscape:cy="200"
     inkscape:cx="400"
     inkscape:zoom="1.0075"
     showgrid="false"
     id="namedview392"
     inkscape:window-height="900"
     inkscape:window-width="1440"
     inkscape:pageshadow="2"
     inkscape:pageopacity="0"
     guidetolerance="10"
     gridtolerance="10"
     objecttolerance="10"
     borderopacity="1"
     bordercolor="#666666"
     pagecolor="#ffffff"
     inkscape:document-rotation="0" />
  <defs
     id="defs315">
    <rect
       id="rect1239"
       height="47.922188"
       width="53.637676"
       y="94.525414"
       x="230.3782" />
    <style
       id="style313">.cls-1,.cls-5,.cls-6{fill:#3aaa35;}.cls-1,.cls-2,.cls-3,.cls-7,.cls-9{stroke:#1a5e2b;}.cls-1,.cls-2,.cls-9{stroke-linecap:round;}.cls-1,.cls-2,.cls-3,.cls-9{stroke-linejoin:round;}.cls-10,.cls-2{fill:#fff;}.cls-3,.cls-7,.cls-9{fill:none;stroke-width:4px;}.cls-4{fill:#1d1d1b;}.cls-6{opacity:0.5;}.cls-7{stroke-miterlimit:10;}.cls-8{fill:#1a5e2b;}</style>
  </defs>
  <title
     id="title317">Artboard 1</title>
  <path
     style="opacity:1;fill:#4db05b;fill-opacity:1;stroke:#003a40;stroke-opacity:1"
     id="path319"
     d="M 102.94,130.91 91.61,127.36 A 6.12,6.12 0 0 1 88,124.28 v 0 a 6.11,6.11 0 0 1 -0.39,-4.54 l 2.13,-6.93 a 18,18 0 0 0 9,-1.41 94.78,94.78 0 0 0 9.74,-6.18 L 113.9,116 v 0 a 1.59,1.59 0 0 0 2.41,1.26 11.08,11.08 0 0 0 3.22,-3.17 c 0.51,-0.72 1,-1.39 1.33,-2 a 9.06,9.06 0 0 0 0.87,-7.8 v 0 a 3.67,3.67 0 0 1 1.18,-4.11 c 4.64,-3.67 15.65,-12.33 17.42,-13.22 l 1.56,-0.79 a 1,1 0 0 1 1.2,0.23 v 0 a 3.38,3.38 0 0 0 4.9,0.13 L 156.4,78 a 13.42,13.42 0 0 1 8.25,-3.91 v 0 a 6.24,6.24 0 0 0 3.57,-1.54 c 1.48,-1.3 4.19,-3.67 8.71,-7.58 7.87,-6.8 20.21,-19 28.21,-24.29 A 47.57,47.57 0 0 1 221.52,34 c 0,0 -15.87,8.33 -27.35,20.4 -11.48,12.07 -16.81,22 -24.56,25.28 -3.79,1.6 -5.93,2 -7.14,2 a 7,7 0 0 0 -5.65,2.82 l -0.09,0.12 c -3,4 -6.72,10.92 -9,12.06 a 3.39,3.39 0 0 1 -3,0 4.47,4.47 0 0 0 -4.92,0.76 c -2.94,2.77 -7.36,7.11 -8.42,9.08 -1.61,3 -2.36,4.65 -2.36,4.65 0,0 -1.73,5.89 -4.59,9.53 a 8.86,8.86 0 0 1 -1.07,1.14 12.78,12.78 0 0 1 -13.17,2.24 l -2.41,-0.93 -1.87,0.63 z"
     class="cls-1" />
  <path
     style="stroke:#003a40;stroke-opacity:1"
     id="path321"
     d="m 104.52,118.51 1.52,3.63 -3,8.45 a 0.37,0.37 0 0 1 -0.45,0.22 l -11,-3.45 A 6.12,6.12 0 0 1 88,124.28 v 0 a 6.11,6.11 0 0 1 -0.39,-4.54 l 1.71,-5.56 a 1.34,1.34 0 0 1 1.75,-0.86 z"
     class="cls-2" />
  <path
     style="stroke:#003a40;stroke-opacity:1"
     id="path323"
     d="m 106.17,124.26 -3.81,-8.33 a 6.2,6.2 0 0 1 2,-7.64 l 4.68,-3.7 5.43,10.75 c 0,0 -4.32,2.52 -8.3,8.92 z"
     class="cls-2" />
  <line
     style="stroke:#003a40;stroke-opacity:1"
     id="line325"
     y2="107.02"
     x2="131.28999"
     y1="101.01"
     x1="122.25"
     class="cls-3" />
  <polygon
     style="fill:#4db05b;fill-opacity:1"
     id="polygon363"
     points="114.87,133.48 76.86,133.48 76.86,195.83 114.87,159.96 "
     class="cls-6" />
  <polygon
     style="stroke:#003a40;stroke-opacity:1"
     id="polygon365"
     points="114.87,133.48 76.86,133.48 76.86,195.83 114.87,159.96 "
     class="cls-7" />
  <path
     style="fill:#4db05b;fill-opacity:1"
     id="path367"
     d="m 76.8,215.21 v 114.16 a 6.37,6.37 0 0 0 6.38,6.37 h 40.24 a 6.37,6.37 0 0 0 6.38,-6.37 v -39.5 a 6.38,6.38 0 0 1 6.38,-6.37 h 18.91 a 6.38,6.38 0 0 1 6.38,6.37 v 39.5 a 6.37,6.37 0 0 0 6.37,6.37 h 40.1 a 6.38,6.38 0 0 0 6.38,-6.37 V 215.21 l -68.76,-68.76 z"
     class="cls-6" />
  <path
     style="fill:#003a40;fill-opacity:1"
     id="path369"
     d="m 214.32,192.14 -63,-63 a 8.16,8.16 0 0 0 -11.53,0 l -92.95,93 a 8.14,8.14 0 0 0 0,11.53 v 0 a 8.16,8.16 0 0 0 11.53,0 l 81.42,-81.43 a 8.16,8.16 0 0 1 11.53,0 l 63,63 18.43,18.43 a 8.16,8.16 0 0 0 11.53,0 v 0 a 8.16,8.16 0 0 0 0,-11.53 z"
     class="cls-8" />
  <rect
     style="fill:#003a40;fill-opacity:1"
     id="rect371"
     ry="5.6700001"
     rx="5.6700001"
     height="11.35"
     width="48.830002"
     y="127.17"
     x="71.690002"
     class="cls-8" />
  <path
     style="stroke:#003a40;stroke-opacity:1"
     id="path373"
     d="m 76.8,197.8 v 131.73 a 6.21,6.21 0 0 0 6.2,6.21 h 40.58 a 6.21,6.21 0 0 0 6.21,-6.21 V 289.71 A 6.21,6.21 0 0 1 136,283.5 h 19.24 a 6.22,6.22 0 0 1 6.22,6.21 v 39.82 a 6.21,6.21 0 0 0 6.21,6.21 h 40.43 a 6.22,6.22 0 0 0 6.22,-6.21 V 198.47"
     class="cls-9" />
  <path
     id="path375"
     d="m 145.22,184.86 a 24.51,24.51 0 0 0 -24.62,24.4 c 0,13.48 24.62,57.69 24.62,57.69 0,0 24.63,-44.21 24.63,-57.69 a 24.51,24.51 0 0 0 -24.63,-24.4 z"
     class="cls-10" />
  <path
     style="fill:#4db05b;fill-opacity:1"
     id="path377"
     d="m 140.81,192.17 a 17.53,17.53 0 0 0 -13,15.31 h 4 a 13.58,13.58 0 0 1 11.92,-11.76 v -8.36 z"
     class="cls-5" />
  <path
     style="fill:#4db05b;fill-opacity:1"
     id="path379"
     d="m 162.7,210.21 h -3.83 a 13.6,13.6 0 0 1 -12.36,12.54 v 0 8.36 l 3.08,-5 a 17.53,17.53 0 0 0 13.11,-15.9 z"
     class="cls-5" />
  <path
     style="fill:#003a40;fill-opacity:1"
     id="path381"
     d="m 131.8,210.52 v -0.29 0 0 h -4 v 0 h -4.31 l 4.74,2.91 a 17.52,17.52 0 0 0 15.58,13.43 v -3.86 A 13.58,13.58 0 0 1 131.8,210.52 Z"
     class="cls-8" />
  <path
     style="fill:#003a40;fill-opacity:1"
     id="path383"
     d="m 167,207.5 -4.89,-3 a 17.52,17.52 0 0 0 -15.62,-12.84 v 4 a 13.58,13.58 0 0 1 12.15,10.95 v 0.87 z"
     class="cls-8" />
  <polygon
     style="fill:#4db05b;fill-opacity:1"
     id="polygon385"
     points="152.34,202.19 146.68,206.38 145.22,197.44 144.13,207.66 132.09,208.94 142.31,210.4 138.29,215.87 143.76,212.22 145.59,222.44 146.68,210.4 157.45,208.94 148.51,207.48 "
     class="cls-5" />
  <polygon
     style="fill:#003a40;fill-opacity:1"
     id="polygon387"
     points="152.16,215.87 143.76,210.03 138.66,202.37 146.5,208.03 "
     class="cls-8" />
  <rect
     style="opacity:1;fill:#ffffff"
     id="rect389"
     ry="1.15"
     rx="1.15"
     height="2.74"
     width="2.74"
     y="207.75"
     x="143.95"
     class="cls-6" />
  <text
     style="font-style:normal;font-weight:normal;font-size:40px;line-height:1.25;font-family:sans-serif;white-space:pre;shape-inside:url(#rect1239);fill:#000000;fill-opacity:1;stroke:none;"
     id="text1237"
     xml:space="preserve" />
  <g
     style="font-style:normal;font-variant:normal;font-weight:bold;font-stretch:normal;font-size:32px;line-height:1.25;font-family:'Miriam Libre';-inkscape-font-specification:'Miriam Libre, Bold';font-variant-ligatures:normal;font-variant-caps:normal;font-variant-numeric:normal;font-variant-east-asian:normal;fill:#000000;fill-opacity:1;stroke:none"
     id="text1245"
     aria-label="FOSS4GUK">
    <path
       id="path957"
       style="font-style:normal;font-variant:normal;font-weight:bold;font-stretch:normal;font-size:32px;font-family:'Miriam Libre';-inkscape-font-specification:'Miriam Libre, Bold';font-variant-ligatures:normal;font-variant-caps:normal;font-variant-numeric:normal;font-variant-east-asian:normal;fill:#003a40;fill-opacity:1"
       d="m 223.87384,267.30908 q -0.288,0 -0.48,-0.192 -0.192,-0.192 -0.192,-0.48 v -20.832 q 0,-0.576 0.384,-0.96 0.416,-0.416 0.992,-0.416 h 10.912 q 0.288,0 0.48,0.192 0.192,0.192 0.192,0.48 v 2.4 q 0,0.288 -0.192,0.48 -0.192,0.192 -0.48,0.192 h -8.384 v 5.984 h 6.24 q 0.288,0 0.48,0.192 0.192,0.192 0.192,0.48 v 2.272 q 0,0.288 -0.192,0.48 -0.192,0.192 -0.48,0.192 h -6.24 v 8.864 q 0,0.288 -0.192,0.48 -0.192,0.192 -0.48,0.192 z" />
    <path
       id="path959"
       style="font-style:normal;font-variant:normal;font-weight:bold;font-stretch:normal;font-size:32px;font-family:'Miriam Libre';-inkscape-font-specification:'Miriam Libre, Bold';font-variant-ligatures:normal;font-variant-caps:normal;font-variant-numeric:normal;font-variant-east-asian:normal;fill:#003a40;fill-opacity:1"
       d="m 247.38784,267.72508 q -2.304,0 -4.256,-1.12 -1.952,-1.152 -3.104,-3.072 -1.12,-1.952 -1.12,-4.256 v -6.816 q 0,-2.304 1.12,-4.224 1.152,-1.952 3.104,-3.072 1.952,-1.152 4.256,-1.152 2.304,0 4.256,1.152 1.952,1.12 3.072,3.072 1.152,1.92 1.152,4.224 v 6.816 q 0,2.304 -1.152,4.256 -1.12,1.92 -3.072,3.072 -1.952,1.12 -4.256,1.12 z m 0,-3.744 q 1.216,0 2.272,-0.64 1.056,-0.64 1.664,-1.728 0.64,-1.088 0.64,-2.336 v -6.816 q 0,-1.248 -0.64,-2.336 -0.608,-1.088 -1.664,-1.728 -1.056,-0.64 -2.272,-0.64 -1.216,0 -2.272,0.64 -1.056,0.64 -1.696,1.728 -0.608,1.088 -0.608,2.336 v 6.816 q 0,1.248 0.608,2.336 0.64,1.088 1.696,1.728 1.056,0.64 2.272,0.64 z" />
    <path
       id="path961"
       style="font-style:normal;font-variant:normal;font-weight:bold;font-stretch:normal;font-size:32px;font-family:'Miriam Libre';-inkscape-font-specification:'Miriam Libre, Bold';font-variant-ligatures:normal;font-variant-caps:normal;font-variant-numeric:normal;font-variant-east-asian:normal;fill:#003a40;fill-opacity:1"
       d="m 266.02584,267.69308 q -1.728,0 -3.424,-0.544 -1.664,-0.576 -3.104,-1.568 -0.16,-0.096 -0.224,-0.32 -0.064,-0.256 0.032,-0.448 l 1.12,-2.016 q 0.192,-0.384 0.608,-0.384 0.256,0 0.48,0.128 2.4,1.504 4.48,1.504 1.696,0 2.656,-0.8 0.992,-0.832 0.992,-2.144 0,-0.864 -0.48,-1.44 -0.48,-0.608 -1.28,-1.024 -0.8,-0.416 -2.336,-1.024 l -0.928,-0.384 q -2.176,-0.928 -3.68,-2.368 -1.472,-1.44 -1.472,-4.224 0,-1.952 0.864,-3.456 0.896,-1.504 2.464,-2.336 1.568,-0.832 3.616,-0.832 1.696,0 3.36,0.576 1.696,0.544 3.04,1.536 0.16,0.096 0.224,0.352 0.064,0.224 -0.032,0.416 l -1.056,2.016 q -0.192,0.384 -0.608,0.384 -0.256,0 -0.48,-0.128 -1.248,-0.8 -2.4,-1.152 -1.12,-0.352 -2.016,-0.352 -1.44,0 -2.272,0.8 -0.832,0.768 -0.832,1.984 0,1.248 0.896,2.08 0.928,0.8 2.944,1.632 0.288,0.096 2.176,0.896 1.92,0.768 3.04,2.272 1.12,1.504 1.12,3.552 0,1.984 -0.96,3.552 -0.928,1.536 -2.624,2.4 -1.696,0.864 -3.904,0.864 z" />
    <path
       id="path963"
       style="font-style:normal;font-variant:normal;font-weight:bold;font-stretch:normal;font-size:32px;font-family:'Miriam Libre';-inkscape-font-specification:'Miriam Libre, Bold';font-variant-ligatures:normal;font-variant-caps:normal;font-variant-numeric:normal;font-variant-east-asian:normal;fill:#003a40;fill-opacity:1"
       d="m 283.15084,267.69308 q -1.728,0 -3.424,-0.544 -1.664,-0.576 -3.104,-1.568 -0.16,-0.096 -0.224,-0.32 -0.064,-0.256 0.032,-0.448 l 1.12,-2.016 q 0.192,-0.384 0.608,-0.384 0.256,0 0.48,0.128 2.4,1.504 4.48,1.504 1.696,0 2.656,-0.8 0.992,-0.832 0.992,-2.144 0,-0.864 -0.48,-1.44 -0.48,-0.608 -1.28,-1.024 -0.8,-0.416 -2.336,-1.024 l -0.928,-0.384 q -2.176,-0.928 -3.68,-2.368 -1.472,-1.44 -1.472,-4.224 0,-1.952 0.864,-3.456 0.896,-1.504 2.464,-2.336 1.568,-0.832 3.616,-0.832 1.696,0 3.36,0.576 1.696,0.544 3.04,1.536 0.16,0.096 0.224,0.352 0.064,0.224 -0.032,0.416 l -1.056,2.016 q -0.192,0.384 -0.608,0.384 -0.256,0 -0.48,-0.128 -1.248,-0.8 -2.4,-1.152 -1.12,-0.352 -2.016,-0.352 -1.44,0 -2.272,0.8 -0.832,0.768 -0.832,1.984 0,1.248 0.896,2.08 0.928,0.8 2.944,1.632 0.288,0.096 2.176,0.896 1.92,0.768 3.04,2.272 1.12,1.504 1.12,3.552 0,1.984 -0.96,3.552 -0.928,1.536 -2.624,2.4 -1.696,0.864 -3.904,0.864 z" />
    <path
       id="path965"
       style="font-style:normal;font-variant:normal;font-weight:bold;font-stretch:normal;font-size:32px;font-family:'Miriam Libre';-inkscape-font-specification:'Miriam Libre, Bold';font-variant-ligatures:normal;font-variant-caps:normal;font-variant-numeric:normal;font-variant-east-asian:normal;fill:#4db05b;fill-opacity:1"
       d="m 304.17084,267.30908 q -0.288,0 -0.48,-0.192 -0.192,-0.192 -0.192,-0.48 v -4.224 h -8.896 q -0.48,0 -0.832,-0.32 -0.32,-0.352 -0.32,-0.832 v -1.952 l 8.896,-14.4 q 0.288,-0.48 0.832,-0.48 h 2.784 q 0.48,0 0.8,0.352 0.352,0.32 0.352,0.8 v 13.216 h 2.336 q 0.288,0 0.48,0.192 0.192,0.192 0.192,0.48 v 2.272 q 0,0.288 -0.192,0.48 -0.192,0.192 -0.48,0.192 h -2.336 v 4.224 q 0,0.288 -0.192,0.48 -0.192,0.192 -0.48,0.192 z m -0.672,-8.512 v -8.992 l -5.536,8.992 z" />
    <path
       id="path967"
       style="font-style:normal;font-variant:normal;font-weight:bold;font-stretch:normal;font-size:32px;font-family:'Miriam Libre';-inkscape-font-specification:'Miriam Libre, Bold';font-variant-ligatures:normal;font-variant-caps:normal;font-variant-numeric:normal;font-variant-east-asian:normal;fill:#003a40;fill-opacity:1"
       d="m 321.98084,267.72508 q -2.304,0 -4.256,-1.12 -1.92,-1.152 -3.072,-3.072 -1.12,-1.952 -1.12,-4.256 v -6.816 q 0,-2.304 1.12,-4.224 1.152,-1.952 3.072,-3.072 1.952,-1.152 4.256,-1.152 2.016,0 3.744,0.736 1.728,0.704 2.944,2.08 0.192,0.224 0.192,0.544 0,0.32 -0.256,0.64 l -1.408,1.472 q -0.256,0.256 -0.512,0.256 -0.32,0 -0.576,-0.288 -1.6,-1.696 -4.096,-1.696 -1.216,0 -2.272,0.64 -1.056,0.64 -1.696,1.728 -0.608,1.088 -0.608,2.336 v 6.816 q 0,1.248 0.608,2.336 0.64,1.088 1.696,1.728 1.056,0.64 2.272,0.64 1.216,0 2.272,-0.608 1.056,-0.608 1.664,-1.664 0.608,-1.056 0.608,-2.304 v -1.568 h -4.288 q -0.288,0 -0.48,-0.192 -0.192,-0.192 -0.192,-0.48 v -2.304 q 0,-0.288 0.192,-0.48 0.192,-0.192 0.48,-0.192 h 6.752 q 0.576,0 0.96,0.416 0.416,0.384 0.416,0.96 v 3.712 q 0,2.304 -1.152,4.256 -1.12,1.92 -3.072,3.072 -1.92,1.12 -4.192,1.12 z" />
    <path
       id="path969"
       style="font-style:normal;font-variant:normal;font-weight:bold;font-stretch:normal;font-size:32px;font-family:'Miriam Libre';-inkscape-font-specification:'Miriam Libre, Bold';font-variant-ligatures:normal;font-variant-caps:normal;font-variant-numeric:normal;font-variant-east-asian:normal;fill:#4db05b;fill-opacity:1"
       d="m 343.15134,267.72508 q -2.432,0 -4.384,-1.184 -1.92,-1.184 -3.04,-3.232 -1.088,-2.08 -1.088,-4.672 v -13.536 q 0,-0.288 0.192,-0.48 0.192,-0.192 0.48,-0.192 h 2.56 q 0.288,0 0.48,0.192 0.192,0.192 0.192,0.48 v 13.696 q 0,2.304 1.248,3.712 1.28,1.408 3.36,1.408 2.048,0 3.296,-1.408 1.28,-1.408 1.28,-3.712 v -13.696 q 0,-0.288 0.192,-0.48 0.192,-0.192 0.48,-0.192 h 2.56 q 0.288,0 0.48,0.192 0.192,0.192 0.192,0.48 v 13.536 q 0,2.592 -1.12,4.672 -1.088,2.08 -3.04,3.264 -1.92,1.152 -4.32,1.152 z" />
    <path
       id="path971"
       style="font-style:normal;font-variant:normal;font-weight:bold;font-stretch:normal;font-size:32px;font-family:'Miriam Libre';-inkscape-font-specification:'Miriam Libre, Bold';font-variant-ligatures:normal;font-variant-caps:normal;font-variant-numeric:normal;font-variant-east-asian:normal;fill:#4db05b;fill-opacity:1"
       d="m 369.94984,267.30908 q -0.576,0 -0.928,-0.448 l -7.2,-9.12 h -1.216 v 8.896 q 0,0.288 -0.192,0.48 -0.192,0.192 -0.48,0.192 h -2.56 q -0.288,0 -0.48,-0.192 -0.192,-0.192 -0.192,-0.48 v -21.536 q 0,-0.288 0.192,-0.48 0.192,-0.192 0.48,-0.192 h 2.56 q 0.288,0 0.48,0.192 0.192,0.192 0.192,0.48 v 9.024 h 1.056 l 7.36,-9.248 q 0.352,-0.448 0.96,-0.448 h 2.912 q 0.288,0 0.448,0.192 0.192,0.16 0.192,0.384 0,0.192 -0.16,0.416 l -8.32,10.304 8.352,10.624 q 0.16,0.224 0.16,0.416 0,0.224 -0.192,0.416 -0.16,0.16 -0.448,0.16 z" />
  </g>
  <g
     style="font-weight:bold;font-size:32px;line-height:1.25;font-family:'Miriam Libre';-inkscape-font-specification:'Miriam Libre, Bold';fill:#003a40;fill-opacity:1"
     id="text1259"
     aria-label="ONLINE">
    <path
       id="path974"
       d="m 231.13783,299.57835 q -2.304,0 -4.256,-1.12 -1.952,-1.152 -3.104,-3.072 -1.12,-1.952 -1.12,-4.256 v -6.816 q 0,-2.304 1.12,-4.224 1.152,-1.952 3.104,-3.072 1.952,-1.152 4.256,-1.152 2.304,0 4.256,1.152 1.952,1.12 3.072,3.072 1.152,1.92 1.152,4.224 v 6.816 q 0,2.304 -1.152,4.256 -1.12,1.92 -3.072,3.072 -1.952,1.12 -4.256,1.12 z m 0,-3.744 q 1.216,0 2.272,-0.64 1.056,-0.64 1.664,-1.728 0.64,-1.088 0.64,-2.336 v -6.816 q 0,-1.248 -0.64,-2.336 -0.608,-1.088 -1.664,-1.728 -1.056,-0.64 -2.272,-0.64 -1.216,0 -2.272,0.64 -1.056,0.64 -1.696,1.728 -0.608,1.088 -0.608,2.336 v 6.816 q 0,1.248 0.608,2.336 0.64,1.088 1.696,1.728 1.056,0.64 2.272,0.64 z" />
    <path
       id="path976"
       d="m 244.81133,299.16235 q -0.288,0 -0.48,-0.192 -0.192,-0.192 -0.192,-0.48 v -21.28 q 0,-0.384 0.256,-0.64 0.288,-0.288 0.672,-0.288 h 2.624 q 0.544,0 0.864,0.48 l 7.68,12.992 1.536,2.688 v -15.488 q 0,-0.288 0.192,-0.48 0.192,-0.192 0.48,-0.192 h 2.304 q 0.288,0 0.48,0.192 0.192,0.192 0.192,0.48 v 21.28 q 0,0.384 -0.288,0.672 -0.256,0.256 -0.64,0.256 h -2.656 q -0.544,0 -0.864,-0.48 l -7.936,-13.44 -1.248,-2.176 v 15.424 q 0,0.32 -0.192,0.512 -0.192,0.16 -0.48,0.16 z" />
    <path
       id="path978"
       d="m 267.89033,299.16235 q -0.576,0 -0.992,-0.384 -0.384,-0.416 -0.384,-0.992 v -20.832 q 0,-0.288 0.192,-0.48 0.192,-0.192 0.48,-0.192 h 2.56 q 0.288,0 0.48,0.192 0.192,0.192 0.192,0.48 v 18.464 h 7.424 q 0.288,0 0.48,0.192 0.192,0.192 0.192,0.48 v 2.4 q 0,0.288 -0.192,0.48 -0.192,0.192 -0.48,0.192 z" />
    <path
       id="path980"
       d="m 282.01433,299.16235 q -0.288,0 -0.48,-0.192 -0.192,-0.192 -0.192,-0.48 v -2.208 q 0,-0.288 0.192,-0.48 0.192,-0.192 0.48,-0.192 h 2.72 v -15.776 h -2.72 q -0.288,0 -0.48,-0.192 -0.192,-0.192 -0.192,-0.48 v -2.208 q 0,-0.288 0.192,-0.48 0.192,-0.192 0.48,-0.192 h 9.344 q 0.288,0 0.48,0.192 0.192,0.192 0.192,0.48 v 2.208 q 0,0.288 -0.192,0.48 -0.192,0.192 -0.48,0.192 h -2.72 v 15.776 h 2.72 q 0.288,0 0.48,0.192 0.192,0.192 0.192,0.48 v 2.208 q 0,0.288 -0.192,0.48 -0.192,0.192 -0.48,0.192 z" />
    <path
       id="path982"
       d="m 297.06133,299.16235 q -0.288,0 -0.48,-0.192 -0.192,-0.192 -0.192,-0.48 v -21.28 q 0,-0.384 0.256,-0.64 0.288,-0.288 0.672,-0.288 h 2.624 q 0.544,0 0.864,0.48 l 7.68,12.992 1.536,2.688 v -15.488 q 0,-0.288 0.192,-0.48 0.192,-0.192 0.48,-0.192 h 2.304 q 0.288,0 0.48,0.192 0.192,0.192 0.192,0.48 v 21.28 q 0,0.384 -0.288,0.672 -0.256,0.256 -0.64,0.256 h -2.656 q -0.544,0 -0.864,-0.48 l -7.936,-13.44 -1.248,-2.176 v 15.424 q 0,0.32 -0.192,0.512 -0.192,0.16 -0.48,0.16 z" />
    <path
       id="path984"
       d="m 320.14033,299.16235 q -0.576,0 -0.992,-0.384 -0.384,-0.416 -0.384,-0.992 v -20.128 q 0,-0.576 0.384,-0.96 0.416,-0.416 0.992,-0.416 h 10.912 q 0.288,0 0.48,0.192 0.192,0.192 0.192,0.48 v 2.4 q 0,0.288 -0.192,0.48 -0.192,0.192 -0.48,0.192 h -8.384 v 5.44 h 6.24 q 0.288,0 0.48,0.192 0.192,0.192 0.192,0.48 v 2.272 q 0,0.288 -0.192,0.48 -0.192,0.192 -0.48,0.192 h -6.24 v 6.336 h 8.384 q 0.288,0 0.48,0.192 0.192,0.192 0.192,0.48 v 2.4 q 0,0.288 -0.192,0.48 -0.192,0.192 -0.48,0.192 z" />
  </g>
  <g
     style="font-weight:bold;font-size:32px;line-height:1.25;font-family:'Miriam Libre';-inkscape-font-specification:'Miriam Libre, Bold'"
     id="text1263"
     aria-label="2020">
    <path
       id="path987"
       style="fill:#4db05b;fill-opacity:1"
       d="m 225.8161,330.37775 q -0.576,0 -0.992,-0.384 -0.384,-0.416 -0.384,-0.96 v -2.56 q 0,-2.528 0.672,-3.968 0.672,-1.472 2.08,-2.528 1.408,-1.056 4.736,-3.008 1.152,-0.672 1.664,-1.472 0.544,-0.832 0.544,-1.824 0,-1.344 -0.896,-2.144 -0.864,-0.8 -2.432,-0.8 -1.92,0 -4,1.216 -0.192,0.096 -0.416,0.096 -0.384,0 -0.576,-0.352 l -1.056,-1.92 q -0.096,-0.16 -0.096,-0.32 0,-0.352 0.288,-0.544 1.28,-0.864 2.88,-1.344 1.632,-0.48 3.328,-0.48 3.2,0 4.992,1.728 1.824,1.728 1.824,4.736 0,2.208 -1.088,3.744 -1.088,1.504 -3.584,3.104 -0.768,0.48 -1.28,0.768 -1.376,0.832 -2.112,1.408 -0.736,0.544 -1.216,1.344 -0.48,0.768 -0.48,1.824 v 0.928 h 8.32 q 0.288,0 0.48,0.192 0.192,0.192 0.192,0.48 v 2.368 q 0,0.288 -0.192,0.48 -0.192,0.192 -0.48,0.192 z" />
    <path
       id="path989"
       style="fill:#4db05b;fill-opacity:1"
       d="m 249.5116,330.79375 q -4,0 -6.048,-3.008 -2.048,-3.008 -2.048,-8.864 0,-5.824 2.048,-8.832 2.08,-3.008 6.048,-3.008 3.968,0 6.016,3.008 2.048,3.008 2.048,8.832 0,5.888 -2.048,8.896 -2.016,2.976 -6.016,2.976 z m 0,-3.648 q 1.472,0 2.368,-0.832 0.896,-0.832 1.312,-2.624 0.416,-1.792 0.416,-4.768 0,-2.976 -0.416,-4.736 -0.416,-1.792 -1.312,-2.592 -0.896,-0.832 -2.4,-0.832 -1.472,0 -2.368,0.832 -0.896,0.832 -1.312,2.656 -0.416,1.792 -0.416,4.8 0,4.32 0.96,6.208 0.96,1.888 3.168,1.888 z" />
    <path
       id="path991"
       style="fill:#4db05b;fill-opacity:1"
       d="m 262.3786,330.37775 q -0.576,0 -0.992,-0.384 -0.384,-0.416 -0.384,-0.96 v -2.56 q 0,-2.528 0.672,-3.968 0.672,-1.472 2.08,-2.528 1.408,-1.056 4.736,-3.008 1.152,-0.672 1.664,-1.472 0.544,-0.832 0.544,-1.824 0,-1.344 -0.896,-2.144 -0.864,-0.8 -2.432,-0.8 -1.92,0 -4,1.216 -0.192,0.096 -0.416,0.096 -0.384,0 -0.576,-0.352 l -1.056,-1.92 q -0.096,-0.16 -0.096,-0.32 0,-0.352 0.288,-0.544 1.28,-0.864 2.88,-1.344 1.632,-0.48 3.328,-0.48 3.2,0 4.992,1.728 1.824,1.728 1.824,4.736 0,2.208 -1.088,3.744 -1.088,1.504 -3.584,3.104 -0.768,0.48 -1.28,0.768 -1.376,0.832 -2.112,1.408 -0.736,0.544 -1.216,1.344 -0.48,0.768 -0.48,1.824 v 0.928 h 8.32 q 0.288,0 0.48,0.192 0.192,0.192 0.192,0.48 v 2.368 q 0,0.288 -0.192,0.48 -0.192,0.192 -0.48,0.192 z" />
    <path
       id="path993"
       style="fill:#4db05b;fill-opacity:1"
       d="m 286.0741,330.79375 q -4,0 -6.048,-3.008 -2.048,-3.008 -2.048,-8.864 0,-5.824 2.048,-8.832 2.08,-3.008 6.048,-3.008 3.968,0 6.016,3.008 2.048,3.008 2.048,8.832 0,5.888 -2.048,8.896 -2.016,2.976 -6.016,2.976 z m 0,-3.648 q 1.472,0 2.368,-0.832 0.896,-0.832 1.312,-2.624 0.416,-1.792 0.416,-4.768 0,-2.976 -0.416,-4.736 -0.416,-1.792 -1.312,-2.592 -0.896,-0.832 -2.4,-0.832 -1.472,0 -2.368,0.832 -0.896,0.832 -1.312,2.656 -0.416,1.792 -0.416,4.8 0,4.32 0.96,6.208 0.96,1.888 3.168,1.888 z" />
  </g>
</svg>
